<!-- Generator: Adobe Illustrator 24.2.0, SVG Export Plug-In  -->
<svg version="1.1" xmlns="http://www.w3.org/2000/svg" xmlns:xlink="http://www.w3.org/1999/xlink" x="0px" y="0px" width="60.9px"
	 height="60.9px" viewBox="0 0 60.9 60.9" style="overflow:visible;enable-background:new 0 0 60.9 60.9;" xml:space="preserve">
<style type="text/css">
	.facebook-svg-0{fill:#4267B2;}
	.facebook-svg-1{fill:#FFFFFF;}
	.facebook-svg-2{fill:none;}
</style>
<defs>
</defs>
<g>
	<g>
		<path class="facebook-svg-0" d="M49.9,8.6H11c-1.3,0-2.4,1.1-2.4,2.4v38.9c0,1.3,1.1,2.4,2.4,2.4c0,0,0,0,0,0h20.9V35.4h-5.7v-6.6h5.7v-4.9
			c0-5.6,3.5-8.7,8.5-8.7c1.7,0,3.4,0.1,5.1,0.3v5.9H42c-2.7,0-3.3,1.3-3.3,3.2v4.2h6.6l-0.9,6.6h-5.7v16.9h11.1
			c1.3,0,2.4-1.1,2.4-2.4l0,0V11C52.3,9.7,51.2,8.6,49.9,8.6C49.9,8.6,49.9,8.6,49.9,8.6z"/>
		<path id="f_2_" class="facebook-svg-1" d="M38.7,52.3V35.4h5.7l0.9-6.6h-6.6v-4.2c0-1.9,0.5-3.2,3.3-3.2h3.5v-5.9c-1.7-0.2-3.4-0.3-5.1-0.3
			c-5,0-8.5,3.1-8.5,8.7v4.9h-5.7v6.6h5.7v16.9H38.7z"/>
	</g>
	<rect class="facebook-svg-2" width="60.9" height="60.9"/>
</g>
</svg>
