<!-- Generator: Adobe Illustrator 24.2.0, SVG Export Plug-In  -->
<svg version="1.1" xmlns="http://www.w3.org/2000/svg" xmlns:xlink="http://www.w3.org/1999/xlink" x="0px" y="0px" width="167.9px"
	 height="102.5px" viewBox="0 0 167.9 102.5" style="overflow:visible;enable-background:new 0 0 167.9 102.5;"
	 xml:space="preserve">
<style type="text/css">
	.prossell_logo_svg_0{fill:none;}
	.prossell_logo_svg_1{fill:#ffffff;}
</style>
<defs>
</defs>
<g>
	<rect class="prossell_logo_svg_0" width="167.9" height="102.5"/>
	<g id="_x39_luVuW.tif_1_">
		<g>
			<g>
				<path class="prossell_logo_svg_1" d="M87.8,13.9c1,0,1.3,1.4,0.4,1.8C75.9,22.4,69.8,34.4,68.9,47c-0.1,1.1-0.7,1.7-1.9,1.7l-26.7,0.1
					c-1.7,0-2.3-0.9-2.3-2.5C39,20.3,66.5,12.9,87.8,13.9z"/>
				<path class="prossell_logo_svg_1" d="M97.9,15.5C87.6,77,49.7,34.4,38.4,84c-0.3,1.5,0.6,2.4,2.4,2.4l27.8,0c1.3,0,2.2-0.6,2.4-1.6
					c11.3-60.2,48.2-15.1,59.5-68.6c0.3-1.2-0.2-2.4-2-2.4H99.9C98.6,13.8,98.1,14.5,97.9,15.5z"/>
			</g>
		</g>
	</g>
</g>
</svg>
