<!-- Generator: Adobe Illustrator 24.2.0, SVG Export Plug-In  -->
<svg version="1.1" xmlns="http://www.w3.org/2000/svg" xmlns:xlink="http://www.w3.org/1999/xlink" x="0px" y="0px" width="60.9px"
	 height="60.9px" viewBox="0 0 60.9 60.9" style="overflow:visible;enable-background:new 0 0 60.9 60.9;" xml:space="preserve">
<style type="text/css">
	.twitter_svg_0{fill:none;}
	.twitter_svg_1{fill:#1DA1F2;}
</style>
<defs>
</defs>
<g>
	<rect class="twitter_svg_0" width="60.9" height="60.9"/>
	<path class="twitter_svg_1" d="M20.3,50.4c18.1,0,28-15,28-28c0-0.4,0-0.8,0-1.3c1.9-1.4,3.6-3.1,4.9-5.1c-1.8,0.8-3.7,1.3-5.7,1.5
		c2.1-1.2,3.6-3.2,4.3-5.4c-1.9,1.1-4,2-6.2,2.4c-3.7-4-10-4.2-13.9-0.4c-2.6,2.4-3.6,6-2.8,9.4C21,23.2,13.6,19.4,8.6,13.3
		c-2.6,4.5-1.3,10.2,3,13.1c-1.6,0-3.1-0.5-4.5-1.2c0,0,0,0.1,0,0.1c0,4.7,3.3,8.7,7.9,9.6c-1.4,0.4-3,0.5-4.4,0.2
		c1.3,4,5,6.8,9.2,6.8c-3.5,2.7-7.8,4.2-12.2,4.2c-0.8,0-1.6,0-2.3-0.1C9.8,48.9,15,50.4,20.3,50.4"/>
</g>
</svg>
